<svg width="149" height="135" xmlns="http://www.w3.org/2000/svg"><circle fill="#FFF8EF" cx="75.5" cy="67.5" r="67.5"/><g fill="#F06543" fill-rule="nonzero" opacity=".25"><path d="M124 122a.5.5 0 00.5-.5v-4.902l4.249 2.451a.5.5 0 00.683-.183l1-1.732a.5.5 0 00-.182-.683L126.002 114l4.248-2.45a.5.5 0 00.183-.684l-1-1.732a.5.5 0 00-.684-.183l-4.248 2.45V106.5a.5.5 0 00-.5-.5h-2.002a.5.5 0 00-.5.5v4.902l-4.248-2.451a.5.5 0 00-.683.183l-1 1.732a.5.5 0 00.182.683l4.248 2.451-4.248 2.45a.5.5 0 00-.183.684l1 1.732a.5.5 0 00.684.183l4.248-2.45v4.901a.5.5 0 00.5.5h2.002zM9.75 89.5a.375.375 0 00.376-.375v-3.676l3.186 1.838c.18.103.409.042.512-.138l.75-1.299a.375.375 0 00-.137-.512L11.251 83.5l3.186-1.838a.375.375 0 00.138-.513l-.75-1.299a.375.375 0 00-.513-.137l-3.186 1.838v-3.676a.375.375 0 00-.376-.375h-1.5a.375.375 0 00-.376.375v3.676l-3.186-1.838a.375.375 0 00-.512.138l-.75 1.298a.375.375 0 00.137.513L6.749 83.5l-3.186 1.838a.375.375 0 00-.138.513l.75 1.299c.104.179.334.24.513.137l3.186-1.838v3.676c0 .207.168.375.376.375h1.5zM56.188 20.375a.594.594 0 00.594-.594v-5.82l5.045 2.91a.594.594 0 00.811-.218l1.188-2.057a.593.593 0 00-.217-.81l-5.044-2.911 5.044-2.91a.594.594 0 00.217-.812l-1.188-2.057a.594.594 0 00-.811-.217l-5.045 2.91V1.97a.594.594 0 00-.594-.594h-2.376a.594.594 0 00-.594.594v5.82l-5.045-2.91a.594.594 0 00-.811.218l-1.188 2.056a.594.594 0 00.217.812l5.044 2.91-5.044 2.91a.594.594 0 00-.217.812l1.188 2.057a.595.595 0 00.811.217l5.045-2.91v5.82c0 .328.266.594.594.594h2.376zM137 42.656a2.906 2.906 0 10.001-5.811 2.906 2.906 0 00-.001 5.811zM8.5 43.328a1.453 1.453 0 100-2.906 1.453 1.453 0 000 2.906zM147.5 68.328a1.453 1.453 0 100-2.906 1.453 1.453 0 000 2.906zM40.5 25.328a1.453 1.453 0 100-2.906 1.453 1.453 0 000 2.906zM70.5 107.328a1.453 1.453 0 100-2.906 1.453 1.453 0 000 2.906zM133.5 91.328a1.453 1.453 0 100-2.906 1.453 1.453 0 000 2.906zM18 56.656a2.906 2.906 0 10.001-5.811A2.906 2.906 0 0018 56.656zM93 121.656a2.906 2.906 0 10.001-5.811 2.906 2.906 0 00-.001 5.811zM81 30.656a2.906 2.906 0 10.001-5.811A2.906 2.906 0 0081 30.656zM102.5 26.422a6.296 6.296 0 006.297-6.297 6.296 6.296 0 00-6.297-6.297 6.296 6.296 0 00-6.297 6.297 6.296 6.296 0 006.297 6.297zm0-1.219a5.077 5.077 0 01-5.078-5.078 5.077 5.077 0 015.078-5.078 5.077 5.077 0 015.078 5.078 5.077 5.077 0 01-5.078 5.078zM55 126.422a6.296 6.296 0 006.297-6.297A6.296 6.296 0 0055 113.828a6.296 6.296 0 00-6.297 6.297A6.296 6.296 0 0055 126.422zm0-1.219a5.077 5.077 0 01-5.078-5.078A5.077 5.077 0 0155 115.047a5.077 5.077 0 015.078 5.078A5.077 5.077 0 0155 125.203z"/></g><g fill-rule="nonzero"><path d="M91.223 98.562c.8 0 2.064-.2 2.823-.447l21.648-7.53c1.583-.633 2.868-2.53 2.868-4.236V36.972a2.284 2.284 0 00-2.278-2.284c-.28 0-.568.052-.85.165l-24.245 8.96-24.525-8.658c-.776-.258-2.069-.467-2.886-.467-.954 0-1.906.15-2.824.447l-21.648 7.53c-1.583.633-2.868 2.53-2.868 4.236v49.377a2.284 2.284 0 002.28 2.284c.279 0 .565-.052.85-.165l24.244-8.96 24.524 8.656c.776.26 2.07.47 2.887.47z" fill="#F7AE99" opacity=".5"/><path d="M116.036 33.697c-.33.025-.657.101-.972.227L91.179 42.75l-24.182-8.538c-.895-.297-2.295-.524-3.219-.524-1.061 0-2.118.167-3.133.496L38.978 41.72c-2.006.802-3.54 3.067-3.54 5.18v49.378a3.284 3.284 0 003.28 3.284l.246-.009c.33-.025.656-.1.972-.226L63.82 90.5l24.184 8.536c.894.299 2.295.526 3.22.526.904 0 2.273-.217 3.132-.496l21.667-7.536c2.006-.801 3.54-3.066 3.54-5.18V36.971a3.283 3.283 0 00-3.278-3.284l-.248.01zm.248 1.99c.694 0 1.278.568 1.278 1.285v49.377c0 1.297-1.036 2.826-2.24 3.308L93.718 97.17c-.64.209-1.8.392-2.495.392-.71 0-1.897-.192-2.57-.417l-24.508-8.65a1 1 0 00-.68.005L39.22 97.46a1.34 1.34 0 01-.503.102c-.696 0-1.28-.567-1.28-1.284V46.901c0-1.296 1.037-2.826 2.24-3.308l21.605-7.513a8.12 8.12 0 012.496-.392c.71 0 1.896.192 2.57.416l24.506 8.652a.998.998 0 00.22.05l.115.007a1 1 0 00.346-.062l24.246-8.96c.182-.072.344-.103.503-.103z" fill="#FF5932"/><path d="M63.5 39.2a1 1 0 01.993.883l.007.117v19.6a1 1 0 01-1.993.117L62.5 59.8V40.2a1 1 0 011-1zM63.5 64.2a1 1 0 01.993.883l.007.117v19.6a1 1 0 01-1.993.117L62.5 84.8V65.2a1 1 0 011-1zM91 43.2a1 1 0 01.993.883L92 44.2v19.6a1 1 0 01-1.993.117L90 63.8V44.2a1 1 0 011-1zM91 68.2a1 1 0 01.993.883L92 69.2V79a1 1 0 01-1.993.117L90 79v-9.8a1 1 0 011-1zM91 88.7a1 1 0 01.993.883L92 89.7v5a1 1 0 01-1.993.117L90 94.7v-5a1 1 0 011-1z" fill="#FF5932"/></g><g transform="translate(24 74)"><circle fill="#FFF8EF" cx="16" cy="16" r="16"/><path d="M16-1C6.611-1-1 6.611-1 16s7.611 17 17 17 17-7.611 17-17S25.389-1 16-1zm0 2c8.284 0 15 6.716 15 15 0 8.284-6.716 15-15 15-8.284 0-15-6.716-15-15C1 7.716 7.716 1 16 1z" fill="#F7AE99" fill-rule="nonzero"/><path d="M22.764 23.867l1.853-1.853c.51-.513.51-1.343 0-1.853L20.5 16.045a2.61 2.61 0 00-3.002-.49l-3.748-3.747V9.625L9.25 6.25 7 8.5l3.375 4.5h2.183l3.748 3.748a2.616 2.616 0 00.488 3.002l4.117 4.117a1.307 1.307 0 001.853 0zm-.787-7.935a4.977 4.977 0 001.54-1.037 5.056 5.056 0 001.332-4.806.42.42 0 00-.707-.193l-2.615 2.615-2.388-.397-.397-2.387 2.616-2.616a.424.424 0 00-.2-.71 5.064 5.064 0 00-4.803 1.333c-1.002 1.002-1.473 2.323-1.448 3.642l2.886 2.886c.285-.067.58-.102.868-.102.995 0 1.93.387 2.633 1.09l.683.682zm-11.138 7.66l4.345-4.345c-.267-.7-.348-1.462-.175-2.204l-1.994-1.993-5.358 5.36a2.25 2.25 0 103.182 3.183zm-1.589-.748A.846.846 0 018.406 22c0-.468.376-.844.844-.844a.844.844 0 010 1.687z" fill="#F06543" fill-rule="nonzero"/></g></svg>