<svg width="40" height="40" xmlns="http://www.w3.org/2000/svg"><g fill="none" fill-rule="evenodd"><circle fill="#FFF8EF" cx="20" cy="20" r="20"/><path d="M19.5 29.25a3.484 3.484 0 003.006-1.744c1.15.313 2.44.025 3.357-.893a3.48 3.48 0 00.893-3.357A3.48 3.48 0 0028.5 20.25a3.48 3.48 0 00-1.744-3.006 3.48 3.48 0 00-.893-3.357 3.48 3.48 0 00-3.357-.893A3.48 3.48 0 0019.5 11.25a3.48 3.48 0 00-3.006 1.744 3.48 3.48 0 00-3.357.893 3.48 3.48 0 00-.893 3.357A3.48 3.48 0 0010.5 20.25a3.48 3.48 0 001.744 3.006 3.48 3.48 0 00.893 3.357 3.46 3.46 0 003.357.893A3.484 3.484 0 0019.5 29.25zm0-1.125c-1.832 0-2.275-1.74-2.401-2.078-1.146.52-2.155.78-3.168-.228-1.294-1.29-.383-2.83-.228-3.168-.426-.162-2.078-.608-2.078-2.401 0-1.832 1.74-2.275 2.078-2.401-.187-.415-1.037-1.902.228-3.168 1.294-1.297 2.84-.376 3.168-.228.162-.426.608-2.078 2.401-2.078 1.832 0 2.275 1.74 2.401 2.078.415-.187 1.902-1.037 3.168.228 1.293 1.29.383 2.83.228 3.168.426.162 2.078.608 2.078 2.401 0 1.832-1.74 2.275-2.078 2.401.187.415 1.037 1.902-.228 3.168-1.016 1.016-2.022.749-3.168.228-.162.426-.608 2.078-2.401 2.078zm.281-3.375a.281.281 0 00.281-.281v-.844h.048c.802 0 1.559-.478 1.819-1.236a1.85 1.85 0 00-1.236-2.383l-2.076-.593A.72.72 0 0118.814 18h1.297c.29 0 .565.09.796.258.105.076.253.051.345-.041l.402-.402a.286.286 0 00-.035-.43 2.464 2.464 0 00-1.508-.51h-.049v-.843a.281.281 0 00-.28-.282h-.563a.281.281 0 00-.282.282v.843h-.124a1.847 1.847 0 00-1.836 2.021c.072.78.67 1.41 1.422 1.625l1.984.566a.72.72 0 01-.197 1.413H18.89c-.29 0-.565-.09-.796-.257-.105-.077-.253-.052-.346.04l-.401.402a.286.286 0 00.035.43c.43.33.955.51 1.508.51h.048v.844c0 .155.126.281.282.281h.562z" fill="#F06543" fill-rule="nonzero"/></g></svg>