<svg width="40" height="40" xmlns="http://www.w3.org/2000/svg"><g fill="none" fill-rule="evenodd"><circle fill="#FFF8EF" cx="20" cy="20" r="20"/><path d="M28.529 29.127l.348-.348a.422.422 0 000-.598l-4.535-4.535a.417.417 0 00-.3-.123h-.361a7.311 7.311 0 00-5.368-12.273A7.311 7.311 0 0011 18.563a7.311 7.311 0 0012.273 5.371v.359c0 .112.046.218.123.299l4.535 4.535a.422.422 0 00.598 0zM18.312 24.75a6.183 6.183 0 01-6.187-6.187 6.183 6.183 0 016.187-6.188 6.183 6.183 0 016.188 6.188 6.183 6.183 0 01-6.188 6.187z" fill="#F06543" fill-rule="nonzero"/></g></svg>