<svg width="40" height="40" xmlns="http://www.w3.org/2000/svg"><g fill="none" fill-rule="evenodd"><circle fill="#FFF8EF" cx="20" cy="20" r="20"/><path d="M30.625 18.715v-5.777a1.69 1.69 0 00-1.688-1.688H12.062a1.69 1.69 0 00-1.687 1.688v5.777a3.92 3.92 0 011.125-.531v-5.246c0-.31.253-.563.562-.563h16.875c.31 0 .563.252.563.563v5.246a3.91 3.91 0 011.125.53zm-2.25 6.035a2.812 2.812 0 100-5.625 2.812 2.812 0 100 5.625zm-7.875 0a2.812 2.812 0 100-5.625 2.812 2.812 0 100 5.625zm-7.875 0a2.812 2.812 0 100-5.625 2.812 2.812 0 100 5.625zm15.75-1.125a1.688 1.688 0 110-3.376 1.688 1.688 0 010 3.376zm-7.875 0a1.688 1.688 0 110-3.376 1.688 1.688 0 010 3.376zm-7.875 0a1.688 1.688 0 110-3.376 1.688 1.688 0 010 3.376zm18.562 5.625c.31 0 .563-.253.563-.563 0-1.55-1.199-2.812-2.672-2.812h-1.406c-1.473 0-2.672 1.262-2.672 2.812 0 .31.253.563.562.563.31 0 .563-.253.563-.563 0-.931.696-1.687 1.547-1.687h1.406c.85 0 1.547.756 1.547 1.687 0 .31.253.563.562.563zm-15.75 0c.31 0 .563-.253.563-.563 0-1.55-1.199-2.812-2.672-2.812h-1.406c-1.473 0-2.672 1.262-2.672 2.812 0 .31.253.563.562.563.31 0 .563-.253.563-.563 0-.931.696-1.687 1.547-1.687h1.406c.85 0 1.547.756 1.547 1.687 0 .31.253.563.562.563zm7.875 0c.31 0 .563-.253.563-.563 0-1.55-1.199-2.812-2.672-2.812h-1.406c-1.473 0-2.672 1.262-2.672 2.812 0 .31.253.563.562.563.31 0 .563-.253.563-.563 0-.931.696-1.687 1.547-1.687h1.406c.85 0 1.547.756 1.547 1.687 0 .31.253.563.562.563z" fill="#F06543" fill-rule="nonzero"/></g></svg>