<svg width="108" height="112" xmlns="http://www.w3.org/2000/svg"><g fill="none" fill-rule="evenodd"><ellipse fill="#FFF8EF" cx="54.5" cy="56.5" rx="53.5" ry="53"/><g fill="#F06543" fill-rule="nonzero" opacity=".25"><path d="M12.5 83a.5.5 0 00.5-.5v-4.902l4.249 2.451a.5.5 0 00.683-.183l1-1.732a.5.5 0 00-.182-.683L14.502 75l4.248-2.45a.5.5 0 00.183-.684l-1-1.732a.5.5 0 00-.684-.183L13 72.4V67.5a.5.5 0 00-.5-.5h-2.002a.5.5 0 00-.5.5v4.902L5.751 69.95a.5.5 0 00-.683.183l-1 1.732a.5.5 0 00.182.683L8.498 75 4.25 77.45a.5.5 0 00-.183.684l1 1.732a.5.5 0 00.684.183L10 77.6V82.5a.5.5 0 00.5.5h2.002zM97.375 74a.375.375 0 00.376-.375v-3.676l3.185 1.838c.18.103.41.042.513-.138l.75-1.299a.375.375 0 00-.137-.512L98.876 68l3.186-1.838a.375.375 0 00.138-.513l-.75-1.299a.375.375 0 00-.514-.137l-3.185 1.838v-3.676a.375.375 0 00-.376-.375h-1.5a.375.375 0 00-.376.375v3.676l-3.186-1.838a.375.375 0 00-.512.138l-.75 1.298a.375.375 0 00.137.513L94.374 68l-3.186 1.838a.375.375 0 00-.138.513l.75 1.299c.104.179.334.24.513.137l3.186-1.838v3.676c0 .207.168.375.375.375h1.501zM74.094 112a.594.594 0 00.595-.594v-5.82l5.044 2.91a.594.594 0 00.811-.218l1.189-2.057a.593.593 0 00-.218-.81l-5.044-2.911 5.044-2.91a.594.594 0 00.218-.812l-1.189-2.057a.594.594 0 00-.811-.217l-5.044 2.91v-5.82a.594.594 0 00-.595-.594h-2.376a.594.594 0 00-.594.594v5.82l-5.044-2.91a.594.594 0 00-.812.218l-1.188 2.056a.594.594 0 00.217.812l5.044 2.91-5.044 2.91a.594.594 0 00-.217.812l1.188 2.057a.595.595 0 00.812.217l5.044-2.91v5.82c0 .328.266.594.594.594h2.376zM92.906 39.812a2.906 2.906 0 10.001-5.811 2.906 2.906 0 000 5.811zM1.453 48.906a1.453 1.453 0 100-2.905 1.453 1.453 0 000 2.905zM87.453 67.906a1.453 1.453 0 100-2.905 1.453 1.453 0 000 2.905zM39.32 19.063a1.453 1.453 0 10-.945-2.747 1.453 1.453 0 00.945 2.747zM22.453 85.906a1.453 1.453 0 100-2.905 1.453 1.453 0 000 2.905zM91.453 80.906a1.453 1.453 0 100-2.905 1.453 1.453 0 000 2.905zM54.453 102.906a1.453 1.453 0 100-2.905 1.453 1.453 0 000 2.905zM78.453 22.906a1.453 1.453 0 100-2.905 1.453 1.453 0 000 2.905zM12.953 58.234a2.906 2.906 0 10.001-5.811 2.906 2.906 0 000 5.811zM44.972 6.442A2.906 2.906 0 1043.081.947a2.906 2.906 0 001.891 5.495zM54.226 14.89a2.906 2.906 0 10-1.89-5.496 2.906 2.906 0 001.89 5.495zM90.297 28.594a6.296 6.296 0 006.297-6.297A6.296 6.296 0 0090.297 16 6.296 6.296 0 0084 22.297a6.296 6.296 0 006.297 6.297zm0-1.219a5.077 5.077 0 01-5.078-5.078 5.077 5.077 0 015.078-5.078 5.077 5.077 0 015.078 5.078 5.077 5.077 0 01-5.078 5.078zM15.297 32.594a6.296 6.296 0 006.297-6.297A6.296 6.296 0 0015.297 20 6.296 6.296 0 009 26.297a6.296 6.296 0 006.297 6.297zm0-1.219a5.077 5.077 0 01-5.078-5.078 5.077 5.077 0 015.078-5.078 5.077 5.077 0 015.078 5.078 5.077 5.077 0 01-5.078 5.078zM34.297 97.594a6.296 6.296 0 006.297-6.297A6.296 6.296 0 0034.297 85 6.296 6.296 0 0028 91.297a6.296 6.296 0 006.297 6.297zm0-1.219a5.077 5.077 0 01-5.078-5.078 5.077 5.077 0 015.078-5.078 5.077 5.077 0 015.078 5.078 5.077 5.077 0 01-5.078 5.078z"/></g><g fill-rule="nonzero"><path d="M52.5 87c4.23 0 8.113-2.312 10.186-5.91a11.708 11.708 0 0011.378-3.026c2.99-2.99 4.11-7.375 3.027-11.378C80.688 64.626 83 60.73 83 56.5c0-4.23-2.312-8.125-5.91-10.187 1.085-4.003-.035-8.387-3.026-11.377-2.99-2.99-7.375-4.11-11.378-3.027C60.626 28.311 56.73 26 52.5 26c-4.23 0-8.125 2.311-10.187 5.91-4.003-1.085-8.387.035-11.377 3.026-2.99 2.99-4.11 7.374-3.027 11.377C24.311 48.375 22 52.27 22 56.5c0 4.23 2.311 8.125 5.91 10.186-1.085 4.003.035 8.388 3.026 11.378 3.157 3.158 7.553 4.063 11.377 3.027C44.387 84.688 48.27 87 52.5 87z" fill="#FBD2C4"/><path d="M52.5 87c4.23 0 8.113-2.312 10.186-5.91a11.708 11.708 0 0011.378-3.026c2.99-2.99 4.11-7.375 3.027-11.378C80.688 64.626 83 60.73 83 56.5c0-4.23-2.312-8.125-5.91-10.187 1.085-4.003-.035-8.387-3.026-11.377-2.99-2.99-7.375-4.11-11.378-3.027C60.626 28.311 56.73 26 52.5 26c-4.23 0-8.125 2.311-10.187 5.91-4.003-1.085-8.387.035-11.377 3.026-2.99 2.99-4.11 7.374-3.027 11.377C24.311 48.375 22 52.27 22 56.5c0 4.23 2.311 8.125 5.91 10.186-1.085 4.003.035 8.388 3.026 11.378 3.157 3.158 7.553 4.063 11.377 3.027C44.387 84.688 48.27 87 52.5 87z" fill="#FF5932"/><path d="M48.99 65.54a.948.948 0 00.673-.28L64.49 50.433a.954.954 0 000-1.347l-1.346-1.348a1.092 1.092 0 00-.673-.278h-.001a.951.951 0 00-.675.278L48.99 60.544l-5.787-5.787a1.092 1.092 0 00-.672-.279h-.002a.95.95 0 00-.674.279l-1.348 1.347a.954.954 0 000 1.348l7.809 7.808c.186.186.43.28.674.28z" fill="#FFF8EF"/></g></g></svg>