<svg xmlns="http://www.w3.org/2000/svg" xmlns:xlink="http://www.w3.org/1999/xlink" viewBox="0 0 109.83 107.48"><defs><style>.cls-1{fill:none;}.cls-2{fill:#fff8ef;}.cls-3{opacity:0.25;}.cls-4{fill:#f06543;}.cls-5{fill:#d53811;}.cls-6{fill:#eec643;}.cls-7{clip-path:url(#clip-path);}.cls-8{fill:#2c2c2c;}.cls-9{fill:#8a8a8a;}</style><clipPath id="clip-path"><path class="cls-1" d="M91.62,61.47c-3.26-3.26-6.25-10.44-7.11-16-1.7-10.95-6.43-11.54-6.43-11.54h0C77,27.88,74.22,19.66,67.58,18.55c-5.8-1-12.78,2.59-17.11,5.43L40.15,21.57s-40.39,42.57-22,48.79A23.14,23.14,0,0,0,26,71.54c-2.19,4.39-4.71,11.66,1.17,14,4.78,1.91,11.51-1.59,16.55-5.09h0s3.5-2,6.13-.32c4.73,3,5.51,28.12,5.51,28.12,41.18-.29,48.41-26.64,48.41-26.64S94.88,64.73,91.62,61.47ZM46.29,72.77a24.73,24.73,0,0,1-5,5c-3.41,2.57-8.75,5.85-12.39,4.39-4.77-1.91-1.23-8.68.09-10.89,9.21-1.22,17.66-6.93,22.58-10.91L54.77,59l-4,7.68Z"/></clipPath></defs><g id="Layer_2" data-name="Layer 2"><g id="Outlined"><circle class="cls-2" cx="57.02" cy="54.66" r="52.82"/><g class="cls-3"><circle class="cls-4" cx="13.28" cy="35.65" r="3.61"/></g><g class="cls-3"><circle class="cls-4" cx="14.51" cy="21.55" r="1.22"/></g><g class="cls-3"><circle class="cls-4" cx="94.1" cy="28.57" r="1.22"/></g><g class="cls-3"><circle class="cls-4" cx="102.01" cy="57.27" r="3.61"/></g><g class="cls-3"><path class="cls-4" d="M94.8,22.61A4.22,4.22,0,1,1,99,18.39,4.23,4.23,0,0,1,94.8,22.61Zm0-7.21a3,3,0,1,0,3,3A3,3,0,0,0,94.8,15.4Z"/></g><g class="cls-3"><path class="cls-4" d="M8.18,60.34,5.63,59l2.55-1.4A.43.43,0,0,0,8.34,57L8,56.35a.44.44,0,0,0-.6-.15L4.92,57.71,5,54.8a.44.44,0,0,0-.43-.44h-.7a.44.44,0,0,0-.43.44l.06,2.91L1,56.2a.43.43,0,0,0-.59.15L.06,57a.43.43,0,0,0,.16.59L2.77,59,.22,60.34a.44.44,0,0,0-.16.6l.35.6a.42.42,0,0,0,.59.15l2.48-1.5-.06,2.9a.44.44,0,0,0,.43.44h.7A.44.44,0,0,0,5,63.09l-.06-2.9,2.48,1.5a.43.43,0,0,0,.6-.15l.34-.6A.44.44,0,0,0,8.18,60.34Z"/></g><g class="cls-3"><path class="cls-4" d="M86.42,8.82l-2.55-1.4L86.42,6a.43.43,0,0,0,.16-.59l-.34-.61a.45.45,0,0,0-.6-.15L83.16,6.18l.06-2.91a.44.44,0,0,0-.43-.44h-.7a.44.44,0,0,0-.43.44l.07,2.91L79.24,4.67a.44.44,0,0,0-.59.15l-.35.61a.43.43,0,0,0,.16.59L81,7.42l-2.55,1.4a.43.43,0,0,0-.16.59l.35.6a.42.42,0,0,0,.59.15l2.49-1.5-.07,2.9a.44.44,0,0,0,.43.44h.7a.44.44,0,0,0,.43-.44l-.06-2.9,2.48,1.5a.43.43,0,0,0,.6-.15l.34-.6A.43.43,0,0,0,86.42,8.82Z"/></g><g class="cls-3"><path class="cls-4" d="M109.59,44.15l-2.54-1.4,2.54-1.4a.42.42,0,0,0,.17-.59l-.35-.6a.43.43,0,0,0-.59-.16l-2.49,1.51.06-2.9a.42.42,0,0,0-.42-.44h-.7a.42.42,0,0,0-.43.44l.06,2.9L102.42,40a.44.44,0,0,0-.6.16l-.35.6a.43.43,0,0,0,.17.59l2.54,1.4-2.54,1.4a.43.43,0,0,0-.17.59l.35.6a.43.43,0,0,0,.6.15L104.9,44l-.06,2.9a.43.43,0,0,0,.43.44h.7a.42.42,0,0,0,.42-.44l-.06-2.9,2.49,1.5a.42.42,0,0,0,.59-.15l.35-.6A.42.42,0,0,0,109.59,44.15Z"/></g><polygon class="cls-5" points="32.64 84.35 24.09 79.11 29.68 68.19 55.93 56.9 53.53 70.11 32.64 84.35"/><path class="cls-6" d="M30.48,19.46s7.3-13.89,10.2-13.89S67.13,8.25,76,17.83s-2.46,12-2.46,12Z"/><path d="M40.68,5.57c2.9,0,26.45,2.68,35.34,12.26s-2.46,12-2.46,12L30.48,19.46s7.3-13.89,10.2-13.89m0-1.84c-1.47,0-3.43.94-7.75,7.8-2.2,3.49-4,6.93-4.09,7.07l-1.1,2.1,2.31.56L73.13,31.59l.4.1.41-.09c.58-.12,5.74-1.31,7-5.43.89-2.82-.32-6.05-3.61-9.6C68,6.44,43.62,3.73,40.68,3.73Z"/><path class="cls-6" d="M35.89,21s6.79-18,14-19S77.45,15.49,77.45,15.49l2.67,16.84Z"/><path d="M50.69,1.85c7.8,0,26.76,13.64,26.76,13.64l2.67,16.84L35.89,21s6.79-18,14-19a4.62,4.62,0,0,1,.76,0m0-1.85h0a6.72,6.72,0,0,0-1,.07C41.58,1.19,34.89,18.35,34.16,20.3l1.27,2.44L79.66,34.12,82,32,79.27,15.2,78.53,14c-2-1.43-19.68-14-27.84-14Z"/><path class="cls-6" d="M46.79,19.45S55.42,5.35,60,5.35s20,7.54,22.36,15.82c.72,2.56-2.21,11.16-2.21,11.16Z"/><path d="M60,5.35c4.55,0,20,7.54,22.36,15.82.72,2.56-2.21,11.16-2.21,11.16L46.79,19.45S55.42,5.35,60,5.35M60,3.5c-1.61,0-4.37.81-9.76,7.77-2.75,3.56-4.91,7.07-5,7.21l-1.15,1.89,2.06.8L79.46,34.05l1.79.7.62-1.82c.73-2.15,3-9.37,2.23-12.26C82.56,15.19,76.45,10.75,73,8.58c-4.84-3-10.18-5.08-13-5.08Z"/><path class="cls-6" d="M29.75,33.29S20,24.79,27.22,18.36c1.18-1.05,1.43-1.69,3.78-1.89,7.56-.64,26.09,4.28,31.32,9.37C69.18,32.52,29.75,33.29,29.75,33.29Z"/><polygon points="32.45 16.41 32.45 16.41 32.45 16.41 32.45 16.41"/><path d="M65,27.51a3.79,3.79,0,0,0-1.35-3c-5.55-5.4-23.08-10-31.16-10h0c-.57,0-1.11,0-1.6.07a6,6,0,0,0-4.38,1.9L26,17a8.94,8.94,0,0,0-3.3,6.89c0,5.7,5.61,10.61,5.85,10.82l.54.46h.71c.06,0,4.17-.09,9.47-.42l40.1.7.39-1.77C79.66,33.61,73.26,30.74,65,27.51ZM54.87,23.78c-26.12-9-28.58-4.62-29.39-3.16a10.86,10.86,0,0,0-.75,1.65,7.57,7.57,0,0,1,2.49-3.91c1.18-1.05,1.43-1.69,3.78-1.89.45,0,.93-.06,1.45-.06h0c8.26,0,24.95,4.64,29.87,9.43a3,3,0,0,1,.68.91C60.39,25.76,57.64,24.74,54.87,23.78Z"/><path class="cls-4" d="M53.3,85.24c-2.58,2.44-4.91,6.24-7,7C42,94,30.38,94.19,27.74,90.29a5.94,5.94,0,0,0-.85-2.84l-4-7.72a1,1,0,0,0-1.85.54L22.28,86l-9.62-4.87a1,1,0,0,0-1,1.64l7.91,6-8.85-.34a1,1,0,0,0-.25,1.92L19,92.34l-7.47,3.27a1,1,0,0,0,.61,1.84l6-1.39a5.61,5.61,0,0,1,1.58-.14l2.93.16a22.25,22.25,0,0,1,2.49.36,13.46,13.46,0,0,1,3,1.21C34,101.06,43,101.44,49,99.15a16.12,16.12,0,0,0,5-3.08Z"/><g class="cls-7"><circle class="cls-4" cx="57.02" cy="54.66" r="52.82"/></g><path class="cls-8" d="M49,36.91l-2.93,3.37A1.58,1.58,0,0,0,47,42.87l4.37.87a1.59,1.59,0,0,0,1.81-2.07l-1.44-4.22A1.59,1.59,0,0,0,49,36.91Z"/><circle class="cls-6" cx="62.32" cy="36.59" r="10.74"/><path d="M62.32,25.84A10.75,10.75,0,1,1,51.58,36.59,10.75,10.75,0,0,1,62.32,25.84m0-1.85a12.6,12.6,0,1,0,12.59,12.6A12.61,12.61,0,0,0,62.32,24Z"/><path class="cls-9" d="M73.07,36.59a10.6,10.6,0,0,0-1-4.54L51.6,36.12c0,.15,0,.31,0,.47a10.74,10.74,0,0,0,2,6.16l19.28-3.84A11.07,11.07,0,0,0,73.07,36.59Z"/><circle class="cls-8" cx="62.32" cy="36.59" r="5.31"/><circle class="cls-2" cx="64.23" cy="33.68" r="2.65"/><circle class="cls-2" cx="60.8" cy="37.42" r="1.13"/><circle class="cls-4" cx="33.42" cy="62.96" r="1.59"/><path d="M33.42,61.37A1.59,1.59,0,1,1,31.84,63a1.59,1.59,0,0,1,1.58-1.59m0-1.85A3.44,3.44,0,1,0,36.86,63a3.44,3.44,0,0,0-3.44-3.44Z"/><path class="cls-4" d="M76.34,81.62a48.44,48.44,0,0,1,7.29,18.68"/><path d="M82.83,100.76a.84.84,0,0,1-.12-.31,47.7,47.7,0,0,0-7.14-18.33.92.92,0,0,1,.27-1.28.93.93,0,0,1,1.28.28,49.66,49.66,0,0,1,7.36,18.67"/><path d="M91.86,94.36C90.19,86.7,87,80,84.51,76.78A.92.92,0,0,1,86,75.66c2.46,3.21,5.65,9.78,7.45,17.27l-.69.66Z"/><polygon points="42.46 16.92 40.91 15.9 45.3 9.22 41.67 8.31 42.12 6.52 48.27 8.05 42.46 16.92"/><path class="cls-4" d="M41.69,32.05s5.9-8.25,12.52-11.48"/><path d="M41.69,33a.89.89,0,0,1-.54-.17.93.93,0,0,1-.21-1.29c.24-.34,6.12-8.47,12.86-11.77a.93.93,0,0,1,1.24.43.92.92,0,0,1-.43,1.23C48.28,24.5,42.5,32.51,42.44,32.59A.93.93,0,0,1,41.69,33Z"/><path class="cls-1" d="M53.3,85.24c-.2.19-.4.39-.59.59.34,1.3.64,2.73.9,4.22Z"/><path class="cls-1" d="M38.22,91.58a23.73,23.73,0,0,0,7.44-1c.83-.33,2.19-1.94,3.39-3.37.53-.63,1.07-1.26,1.63-1.88-.85-2.79-1.61-3.46-1.83-3.6a2.65,2.65,0,0,0-1.45-.38,6.54,6.54,0,0,0-2.73.73C39,86,34.13,87.94,30.16,87.94a9.24,9.24,0,0,1-1.05-.06,7,7,0,0,1,.43,1.69C30.64,90.62,33.59,91.58,38.22,91.58Z"/><path class="cls-1" d="M25.3,84.4l-1.67-3.2A5.25,5.25,0,0,0,25.3,84.4Z"/><path class="cls-1" d="M29.61,80.49a3.56,3.56,0,0,0,1.31.22c2.25,0,5.55-1.55,9.28-4.37a23.19,23.19,0,0,0,4.61-4.67l4.44-6,.93-1.81c-7.26,5.35-13.5,7.76-18.13,8.8h0c-.06,0-.82.2-1.87.37-1.46,2.66-2.12,5.12-1.69,6.4A1.72,1.72,0,0,0,29.61,80.49Z"/><path class="cls-1" d="M21,80.27l1.16,5.19a.89.89,0,0,1,.11.48V86h0a1,1,0,0,1-.05.24,6.62,6.62,0,0,0,.56,5.57.92.92,0,0,1-1.55,1,8.39,8.39,0,0,1-.72-7.28,1,1,0,0,1,.22-.31l-8.06-4.08A1,1,0,0,0,12.2,81a1,1,0,0,0-.57,1.75l7.91,6-8.85-.34h0a1,1,0,0,0-.2,1.92L19,92.34l-7.47,3.27a1,1,0,0,0,.36,1.87l.25,0,6-1.39a5.38,5.38,0,0,1,1.27-.15h.31l2.93.16a21.9,21.9,0,0,1,2.49.36,13.46,13.46,0,0,1,3,1.21,25,25,0,0,0,12.25,2.95A24.31,24.31,0,0,0,49,99.15a15.93,15.93,0,0,0,3.74-2.05q-.12-1.21-.27-2.46a70.11,70.11,0,0,0-1.19-7.19c-1.78,2.08-3.43,4.24-4.93,4.82a25.12,25.12,0,0,1-8.1,1.15c-4.39,0-8.94-.86-10.48-3.13a5.94,5.94,0,0,0-.85-2.84l0,0-.4-.14a7.12,7.12,0,0,1-4.25-4.17,9.42,9.42,0,0,1-.51-3.94A.93.93,0,0,0,21,80.27Z"/><path d="M22,77.27a14.29,14.29,0,0,0-.25,1.88,1.17,1.17,0,0,1,.26,0,.92.92,0,0,1,.88.62l.78,1.47a9.77,9.77,0,0,1,.1-3.31A2.73,2.73,0,0,0,22,77.26Z"/><path d="M22.22,83.09a7.12,7.12,0,0,0,4.25,4.17l.4.14,0,0a5.94,5.94,0,0,1,.85,2.84c1.54,2.27,6.09,3.13,10.48,3.13a25.12,25.12,0,0,0,8.1-1.15c1.5-.58,3.15-2.74,4.93-4.82-.19-.83-.38-1.54-.57-2.15-.56.62-1.1,1.25-1.63,1.88-1.2,1.43-2.56,3-3.39,3.37a23.73,23.73,0,0,1-7.44,1c-4.63,0-7.58-1-8.68-2a7,7,0,0,0-.43-1.69,9.24,9.24,0,0,0,1.05.06c4,0,8.85-2,14.51-5.89a6.54,6.54,0,0,1,2.73-.73,2.65,2.65,0,0,1,1.45.38c.22.14,1,.81,1.83,3.6.44-.49.89-1,1.35-1.4l.07-.06c-.63-1.8-1.38-3.15-2.26-3.7a4.47,4.47,0,0,0-2.44-.66,8.5,8.5,0,0,0-3.69,1h0c-4.05,2.81-9.2,5.63-13.55,5.63a8.46,8.46,0,0,1-2-.24,6.91,6.91,0,0,1-1-.3A6.26,6.26,0,0,1,25.3,84.4a5.25,5.25,0,0,1-1.67-3.2l-.78-1.47a.92.92,0,0,0-.88-.62,1.17,1.17,0,0,0-.26,0A9.42,9.42,0,0,0,22.22,83.09Z"/><path d="M92.92,60.16c-2.79-2.79-5.74-9.5-6.59-15C85,36.4,81.62,33.5,79.69,32.55c-2-9.39-6-14.86-11.81-15.82a13.57,13.57,0,0,0-2.33-.19c-5.8,0-11.92,3.24-15.42,5.46l-9.56-2.23-1-.24-.73.77A218.66,218.66,0,0,0,24.19,37.74c-9.68,13-13.86,22.56-12.4,28.45a8.27,8.27,0,0,0,5.75,5.92,24.13,24.13,0,0,0,5.15,1.12h.08l.4.05a22.47,22.47,0,0,0-1.21,4h0a2.73,2.73,0,0,1,1.76.63,21.5,21.5,0,0,1,1.43-4.55h.73c.46,0,.94,0,1.41,0l.67,0c-1.41,2.93-2.79,7.42,1,8.92a5.29,5.29,0,0,0,2,.36c3.42,0,7.57-2.62,10.4-4.75a24.73,24.73,0,0,0,5-5l4.53-6.14,3.89-7.58.51-.73a31.85,31.85,0,0,0,4.11.6h.06a.93.93,0,0,0,.06-1.85,26,26,0,0,1-4.39-.69C53,55.83,50.9,55,50.88,55a.91.91,0,0,0-1.19.52.92.92,0,0,0,.52,1.2c.07,0,1.46.57,3.12,1.07l-1.9,2.74c-4.94,4-13.28,9.55-22.38,10.77-.58.07-1.21.14-1.82.17-1.73.07-3.5,0-4.14-.07a22.52,22.52,0,0,1-5-1c-18.37-6.22,22-48.79,22-48.79L50.47,24c3.83-2.52,9.74-5.59,15.08-5.59a12.36,12.36,0,0,1,2,.16c6.64,1.11,9.38,9.33,10.5,15.38h0s4.73.59,6.43,11.54c.86,5.56,3.85,12.74,7.11,16,2.73,2.73,9.43,15.06,11.51,19l1.05-2C101.55,73.59,95.65,62.89,92.92,60.16ZM30.18,73c1.05-.17,1.81-.35,1.87-.37h0c4.63-1,10.87-3.45,18.13-8.8l-.93,1.81-4.44,6a23.19,23.19,0,0,1-4.61,4.67c-3.73,2.82-7,4.37-9.28,4.37a3.56,3.56,0,0,1-1.31-.22,1.72,1.72,0,0,1-1.12-1.08C28.06,78.13,28.72,75.67,30.18,73Z"/><path d="M19.18,80.63v.05l.43,1.91-6.13-3.1a3,3,0,0,0-1.29-.31,2.82,2.82,0,0,0-2.66,1.94,2.77,2.77,0,0,0,1,3.13l3.27,2.5-3-.12h-.12A2.82,2.82,0,0,0,10,92.2l3.11.7-2.32,1a2.82,2.82,0,0,0,1.1,5.4,3.05,3.05,0,0,0,.67-.07l6-1.39a3.47,3.47,0,0,1,.85-.1h.2l2.93.17h0a20.63,20.63,0,0,1,2.25.33,11.09,11.09,0,0,1,2.42,1,26.63,26.63,0,0,0,13.15,3.18,26.2,26.2,0,0,0,9.26-1.56,18,18,0,0,0,3.27-1.67c.34,4.11.42,7.3.43,7.34l0,.81,2,.09c-.07-1.58-.26-5.31-.67-9.53-.26-2.57-.59-5.31-1-7.87-.26-1.49-.56-2.92-.9-4.22-.5.52-1,1.06-1.46,1.62a70.11,70.11,0,0,1,1.19,7.19q.15,1.24.27,2.46A15.93,15.93,0,0,1,49,99.15a24.31,24.31,0,0,1-8.6,1.45,25,25,0,0,1-12.25-2.95,13.46,13.46,0,0,0-3-1.21,21.9,21.9,0,0,0-2.49-.36l-2.93-.16h-.31a5.38,5.38,0,0,0-1.27.15l-6,1.39-.25,0a1,1,0,0,1-.36-1.87L19,92.34,10.44,90.4a1,1,0,0,1,.2-1.92h0l8.85.34-7.91-6A1,1,0,0,1,12.2,81a1,1,0,0,1,.46.11l8.06,4.08a1,1,0,0,0-.22.31,8.39,8.39,0,0,0,.72,7.28.92.92,0,0,0,1.55-1,6.62,6.62,0,0,1-.56-5.57,1,1,0,0,0,.05-.24h0v-.07a.89.89,0,0,0-.11-.48L21,80.27a.93.93,0,0,1,.71-1.12A14.29,14.29,0,0,1,22,77.27a2.89,2.89,0,0,0-2.21,1A2.84,2.84,0,0,0,19.18,80.63Z"/><path d="M50.68,85.3c.19.61.38,1.32.57,2.15.47-.56,1-1.1,1.46-1.62-.19-.71-.4-1.38-.61-2L52,83.9C51.57,84.34,51.12,84.81,50.68,85.3Z"/></g></g></svg>