<svg xmlns="http://www.w3.org/2000/svg" viewBox="0 0 335.35 49.72"><defs><style>.cls-1{fill:#1a181b;}.cls-2{fill:#6d98ba;}.cls-3{fill:#f06543;}</style></defs><g id="Layer_2" data-name="Layer 2"><g id="DistrictBuilder_Old_Logo" data-name="DistrictBuilder Old Logo"><path class="cls-1" d="M86.75,20.76v8c0,6.51-3.92,11.17-11.88,11.17H65.51a.51.51,0,0,1-.58-.58v-29a.51.51,0,0,1,.58-.58h9.36C82.83,9.7,86.75,14.36,86.75,20.76ZM70.21,14.61V35h4.58c4.7,0,6.68-2.35,6.68-6.39V21c0-4-2-6.39-6.68-6.39Z"/><path class="cls-1" d="M96.56,9.21v3.92a.65.65,0,0,1-.74.74H92.23c-.53,0-.78-.25-.78-.74V9.21a.69.69,0,0,1,.78-.74h3.59A.67.67,0,0,1,96.56,9.21Zm0,8.5v21.6a.52.52,0,0,1-.57.58H92.07c-.41,0-.62-.2-.62-.58V17.71c0-.38.21-.58.62-.58H96A.52.52,0,0,1,96.56,17.71Z"/><path class="cls-1" d="M118.75,22a.55.55,0,0,1-.41.78l-3,1.07c-.45.12-.66,0-.79-.41-.66-1.86-2.14-2.76-4.37-2.76s-3.67.94-3.67,2.43,1,2,5.32,3.22C117,27.81,119,29.83,119,33.42c0,4.2-3.46,7-8.78,7-4.79,0-8.25-2-9.32-5.36-.17-.46,0-.7.49-.91l2.68-1.32c.5-.17.74-.08.91.49.62,1.9,2.56,3.06,5.07,3.06s4-1,4-2.6-1.24-2.27-5.52-3.47c-5-1.4-7-3.34-7-6.8,0-4.08,3.35-6.81,8.42-6.81C114.46,16.67,117.68,18.65,118.75,22Z"/><path class="cls-1" d="M129.93,12.1v5.19h4.53c.33,0,.54.21.54.62v3c0,.41-.21.58-.54.58h-4.53V32.92c0,1.65.91,2.48,2.76,2.48h1.73A.51.51,0,0,1,135,36v3.33a.51.51,0,0,1-.58.58h-2.55c-4.62,0-6.93-2.47-6.93-6.27V21.46h-2.85c-.37,0-.57-.17-.57-.58v-3c0-.41.2-.62.57-.62H125V12.1a.55.55,0,0,1,.58-.58h3.79A.53.53,0,0,1,129.93,12.1Z"/><path class="cls-1" d="M151.83,17.46v3.59c0,.45-.17.61-.66.61h-.58a5.93,5.93,0,0,0-6.14,4.25V39.36a.49.49,0,0,1-.5.53h-4.08a.51.51,0,0,1-.54-.53V17.66a.51.51,0,0,1,.58-.53h3.75a.52.52,0,0,1,.58.58l0,3.21a7.48,7.48,0,0,1,6.8-4.08C151.7,16.84,151.83,17,151.83,17.46Z"/><path class="cls-1" d="M161.11,9.21v3.92a.66.66,0,0,1-.74.74h-3.59c-.54,0-.79-.25-.79-.74V9.21a.69.69,0,0,1,.79-.74h3.59A.67.67,0,0,1,161.11,9.21Zm0,8.5v21.6a.52.52,0,0,1-.58.58h-3.92c-.41,0-.62-.2-.62-.58V17.71c0-.38.21-.58.62-.58h3.92A.52.52,0,0,1,161.11,17.71Z"/><path class="cls-1" d="M184,23.19a.58.58,0,0,1-.49.74l-3.13.87c-.62.16-.75.08-.91-.37-.45-1.36-1.12-3.26-4.08-3.26-2.81,0-4.29,1.86-4.29,4.91v5c0,3,1.48,4.78,4.29,4.78s3.58-1.28,4.2-3.09c.17-.54.37-.62.87-.42l3.17,1.12c.5.16.5.45.42.87-.7,3.21-3.76,6-9,6-5.74,0-9.08-3.76-9.08-9V25.83c0-5.28,3.34-9.16,9.08-9.16C179.91,16.67,183.25,19.11,184,23.19Z"/><path class="cls-1" d="M194.23,12.1v5.19h4.53c.33,0,.54.21.54.62v3c0,.41-.21.58-.54.58h-4.53V32.92c0,1.65.9,2.48,2.76,2.48h1.73a.51.51,0,0,1,.58.58v3.33a.51.51,0,0,1-.58.58h-2.56c-4.62,0-6.92-2.47-6.92-6.27V21.46h-2.85a.51.51,0,0,1-.58-.58v-3c0-.41.21-.62.58-.62h2.89V12.1a.54.54,0,0,1,.57-.58h3.8A.53.53,0,0,1,194.23,12.1Z"/><path class="cls-1" d="M224.58,17.33v.54a6.38,6.38,0,0,1-4.24,6.31c3,.54,5.15,3.13,5.15,6.85v.61c0,5-3.13,8.25-9.28,8.25H205.28a.51.51,0,0,1-.58-.58v-29a.51.51,0,0,1,.58-.58H216C221.7,9.7,224.58,12.67,224.58,17.33Zm-14.6-3v7.8h5.24c3.09,0,4.21-1.78,4.21-3.71V18c0-2.1-1.12-3.71-4.21-3.71Zm0,12.46v8.49h5.53c2.76,0,4.7-1.15,4.7-3.91v-.58c0-2.64-1.69-4-4.7-4Z"/><path class="cls-1" d="M229.62,32.59V17.71a.55.55,0,0,1,.62-.58h3.91a.51.51,0,0,1,.58.58V31.77c0,2.43,1.2,3.92,3.5,3.92a5.38,5.38,0,0,0,4.83-3.92V17.71c0-.38.16-.58.54-.58h4c.41,0,.61.2.61.58V39.36a.52.52,0,0,1-.57.53h-3.84a.51.51,0,0,1-.58-.53V36.59a8.34,8.34,0,0,1-6.88,3.76C232,40.35,229.62,37.21,229.62,32.59Z"/><path class="cls-1" d="M259.43,9.21v3.92a.66.66,0,0,1-.75.74H255.1c-.54,0-.79-.25-.79-.74V9.21a.69.69,0,0,1,.79-.74h3.58A.68.68,0,0,1,259.43,9.21Zm0,8.5v21.6a.52.52,0,0,1-.58.58h-3.92c-.41,0-.62-.2-.62-.58V17.71c0-.38.21-.58.62-.58h3.92A.52.52,0,0,1,259.43,17.71Z"/><path class="cls-1" d="M270.64,9V39.31a.52.52,0,0,1-.57.58h-3.92c-.41,0-.62-.2-.62-.58V9c0-.37.21-.57.62-.57h3.92A.51.51,0,0,1,270.64,9Z"/><path class="cls-1" d="M275.47,31.64v-6.1c0-5.24,3.09-8.82,7.75-8.82a7.31,7.31,0,0,1,6.48,3.34V9a.49.49,0,0,1,.53-.53h4a.52.52,0,0,1,.54.53V39.36a.51.51,0,0,1-.58.53H290.4a.5.5,0,0,1-.54-.53V37.05a7.42,7.42,0,0,1-6.43,3.3C278.52,40.35,275.47,36.88,275.47,31.64Zm14.23-.74V26.28c0-3.21-2.11-5.07-4.71-5.07-2.88,0-4.41,1.9-4.41,5.07V30.9c0,3.22,1.53,5,4.41,5C287.59,35.85,289.7,34.12,289.7,30.9Z"/><path class="cls-1" d="M304.38,30.08V31.4c0,2.93,1.53,4.74,4.78,4.78,3.06,0,4-1.2,4.79-2.72.33-.54.53-.62,1.07-.37l2.6,1.32c.57.29.62.62.37,1.11-1.36,3-4.54,4.83-8.87,4.83-6.31,0-9.65-3.76-9.65-9v-5.6c0-5.16,3.22-9,9.57-9,6.1,0,9.2,3.88,9.2,9v3.47c0,.66-.25,1-1,1Zm0-4.58v1.2h9.15V25.5c0-2.81-1.56-4.66-4.57-4.66S304.38,22.69,304.38,25.5Z"/><path class="cls-1" d="M335.35,17.46v3.59c0,.45-.16.61-.66.61h-.57A6,6,0,0,0,328,25.91V39.36a.48.48,0,0,1-.49.53h-4.09a.51.51,0,0,1-.53-.53V17.66a.5.5,0,0,1,.57-.53h3.76a.51.51,0,0,1,.57.58l0,3.21a7.5,7.5,0,0,1,6.81-4.08C335.23,16.84,335.35,17,335.35,17.46Z"/><path class="cls-2" d="M15.58,26.3a.72.72,0,0,1,0-1l9.7-9.7a.72.72,0,0,1,1,0l5,5a.72.72,0,0,0,1,0l6.2-6.2a.72.72,0,0,0,0-1L33.75,8.6l-1-1L25.37.21a.72.72,0,0,0-1,0L17,7.58l-1,1L8.6,16l-1,1L.21,24.35a.72.72,0,0,0,0,1l7.37,7.37,1,1,4.8,4.81a.72.72,0,0,0,1,0l6.2-6.2a.72.72,0,0,0,0-1Z"/><path class="cls-3" d="M42.14,17l-1-1L41,15.82a.72.72,0,0,0-1,0l-7.6,7.6a.72.72,0,0,1-1,0l-5-5a.72.72,0,0,0-1,0l-6.9,6.9a.72.72,0,0,0,0,1l5,5a.72.72,0,0,1,0,1L15.82,40a.72.72,0,0,0,0,1l.14.14,1,1,7.37,7.37a.72.72,0,0,0,1,0l7.37-7.37,1-1,7.37-7.37,1-1,7.37-7.37a.72.72,0,0,0,0-1Z"/></g></g></svg>