<svg height="75" viewBox="0 0 74 75" width="74" xmlns="http://www.w3.org/2000/svg" xmlns:xlink="http://www.w3.org/1999/xlink"><mask id="a" fill="#fff"><path d="m0 .8073h57.089955v57.0906375h-57.089955z" fill="#fff" fill-rule="evenodd"/></mask><g fill="#fff" fill-rule="evenodd"><path d="m23.159955 39.82485c-.54405-.546-.54405-1.4391 0-1.98705l13.8723-13.87035c.546-.546 1.44105-.546 1.9851 0l6.9771 6.9771c.54405.54795 1.4391.54795 1.9851 0l8.7009-8.7009c.546-.546.546-1.4391 0-1.9851l-6.63195-6.63195c-.546-.546-1.4391-1.4391-1.9851-1.9851l-10.4247-10.4247c-.54405-.546-1.4391-.546-1.9851 0l-10.4247 10.4247c-.546.546-1.4391 1.4391-1.9851 1.9851l-10.4247 10.4247-1.9851 1.98705-10.4247 10.4208c-.546.54795-.546 1.44105 0 1.98705l10.4247 10.4247 1.9851 1.9851 6.6339 6.6339c.54405.54405 1.4391.54405 1.98315 0l8.70285-8.7009c.54405-.54795.54405-1.44105 0-1.98705z" mask="url(#a)" transform="translate(0 .14192)"/><path d="m62.45889 26.179685c-.546-.546-1.3806-1.38255-1.85445-1.85445-.47385-.47385-1.3104-.4173-1.85445.1287l-10.7718 10.76985c-.54405.546-1.4391.546-1.98315 0l-6.9771-6.9771c-.546-.54795-1.44105-.54795-1.9851 0l-9.73635 9.7344c-.546.546-.546 1.4391 0 1.9851l6.97905 6.9771c.54405.54795.54405 1.44105 0 1.98705l-10.7718 10.7679c-.54405.546-.60255 1.3806-.1287 1.8564.4719.47385 1.30845 1.30845 1.8525 1.85445l10.42665 10.42275c.54405.546 1.4391.546 1.98315 0l10.4247-10.42275 1.98705-1.98705 10.42275-10.42275c.54795-.54795 1.44105-1.44105 1.98705-1.98705l10.4247-10.4247c.54405-.546.54405-1.4391 0-1.9851z"/></g></svg>