<svg height="51" viewBox="0 0 325 51" width="325" xmlns="http://www.w3.org/2000/svg" xmlns:xlink="http://www.w3.org/1999/xlink"><mask id="a" fill="#fff"><path d="m.50063.42653h12.32647v22.7422h-12.32647z" fill="#fff" fill-rule="evenodd"/></mask><mask id="b" fill="#fff"><path d="m0 .5382h38.05997v38.060425h-38.05997z" fill="#fff" fill-rule="evenodd"/></mask><g fill="none" fill-rule="evenodd"><g fill="#141414"><path d="m66.55896 14.59055v20.098h4.5175c4.6384 0 6.591-2.3179 6.591-6.3063v-7.4841c0-3.9884-1.9526-6.3076-6.591-6.3076zm16.3163 6.0619v7.852c0 6.4285-3.8662 11.0266-11.7182 11.0266h-9.2339c-.4082 0-.572-.2041-.572-.5707v-28.6416c0-.3653.1638-.5694.572-.5694h9.2339c7.852 0 11.7182 4.5981 11.7182 10.9031z"/><path d="m92.15271 17.64243v21.3174c0 .3679-.2028.5707-.5694.5707h-3.8649c-.4082 0-.611-.2028-.611-.5707v-21.3174c0-.3666.2028-.5694.611-.5694h3.8649c.3666 0 .5694.2028.5694.5694m0-8.3811v3.8649c0 .4875-.2431.7319-.7319.7319h-3.5399c-.5291 0-.7735-.2444-.7735-.7319v-3.8649c0-.4472.2444-.7332.7735-.7332h3.5399c.4888 0 .7319.286.7319.7332"/><path d="m113.71438 21.91449c.1235.3653 0 .65-.4056.7735l-2.9705 1.0569c-.4472.1222-.6513 0-.7722-.4069-.6513-1.8304-2.1151-2.7261-4.3134-2.7261-2.2789 0-3.6205.936-3.6205 2.4011 0 1.3832.936 1.9526 5.2481 3.1733 5.0843 1.4235 7.1201 3.4177 7.1201 6.9576 0 4.1483-3.4177 6.8757-8.6658 6.8757-4.719 0-8.1367-1.9539-9.1962-5.291-.1625-.4459 0-.6903.4888-.8944l2.6455-1.3013c.4875-.1625.7319-.0819.8944.4875.611 1.872 2.5233 3.0108 5.005 3.0108 2.522 0 3.9871-.9763 3.9871-2.5623 0-1.4651-1.2207-2.2386-5.4522-3.4177-4.8815-1.3845-6.9173-3.2955-6.9173-6.7132 0-4.0274 3.2968-6.7119 8.3005-6.7119 4.394 0 7.5686 1.9526 8.6242 5.2884"/><path d="m124.37594 12.10859v5.1259h4.4746c.3263 0 .5304.2054.5304.611v2.9289c0 .4069-.2041.5694-.5304.5694h-4.4746v11.3113c0 1.6276.8944 2.4414 2.7261 2.4414h1.7082c.3666 0 .5707.1625.5707.5694v3.2942c0 .4082-.2041.5707-.5707.5707h-2.522c-4.5565 0-6.8354-2.4414-6.8354-6.1841v-12.0029h-2.8067c-.3679 0-.5707-.1625-.5707-.5694v-2.9289c0-.4056.2028-.611.5707-.611h2.847v-5.1259c0-.325.2028-.5681.5707-.5681h3.744c.4056 0 .5681.2431.5681.5681"/><path d="m145.57452 17.39751v3.5412c0 .4459-.1638.6084-.6526.6084h-.5681c-3.2552 0-5.2494 1.6692-6.0632 4.1912v13.2626c0 .3666-.2444.5291-.4888.5291h-4.0261c-.2444 0-.5291-.1625-.5291-.5291v-21.3993c0-.3666.2444-.5291.5694-.5291h3.7024c.4056 0 .5681.2444.5681.5694l-.0403 3.1733c1.1401-2.0748 3.2552-4.0274 6.7132-4.0274.6916 0 .8151.1222.8151.6097"/><path d="m154.07782 17.64243v21.3174c0 .3679-.2028.5707-.5694.5707h-3.8649c-.4082 0-.611-.2028-.611-.5707v-21.3174c0-.3666.2028-.5694.611-.5694h3.8649c.3666 0 .5694.2028.5694.5694m0-8.3811v3.8649c0 .4875-.2431.7319-.7319.7319h-3.5399c-.5291 0-.7735-.2444-.7735-.7319v-3.8649c0-.4472.2444-.7332.7735-.7332h3.5399c.4888 0 .7319.286.7319.7332"/><path d="m176.12959 23.05329c.0403.3653-.0416.611-.4901.7319l-3.0914.8554c-.611.1625-.7319.0806-.8944-.3679-.4472-1.3416-1.0985-3.2123-4.0274-3.2123-2.7677 0-4.2328 1.8304-4.2328 4.8399v4.9244c0 3.0095 1.4651 4.7177 4.2328 4.7177 2.6429 0 3.5399-1.2597 4.1483-3.0498.1625-.5291.3666-.611.8554-.4082l3.133 1.0998c.4888.1625.4888.4472.4069.8541-.6929 3.1733-3.7024 5.941-8.8699 5.941-5.6563 0-8.9505-3.7037-8.9505-8.9115v-5.4106c0-5.2078 3.2942-9.0311 8.9505-9.0311 4.8412 0 8.1367 2.3985 8.8296 6.4272"/><path d="m186.74799 12.10859v5.1259h4.4759c.325 0 .5291.2054.5291.611v2.9289c0 .4069-.2041.5694-.5291.5694h-4.4759v11.3113c0 1.6276.8957 2.4414 2.7274 2.4414h1.7082c.3653 0 .5694.1625.5694.5694v3.2942c0 .4082-.2041.5707-.5694.5707h-2.5233c-4.5552 0-6.8341-2.4414-6.8341-6.1841v-12.0029h-2.8067c-.3679 0-.5707-.1625-.5707-.5694v-2.9289c0-.4056.2028-.611.5707-.611h2.847v-5.1259c0-.325.2028-.5681.5707-.5681h3.7427c.4056 0 .5681.2431.5681.5681"/><path d="m201.88844 26.59267v8.3811h5.4509c2.7274 0 4.6397-1.1401 4.6397-3.8649v-.5694c0-2.6039-1.6679-3.9468-4.6397-3.9468zm0-12.2863v7.6895h5.1675c3.0511 0 4.1496-1.7498 4.1496-3.6621v-.3666c0-2.0735-1.0985-3.6608-4.1496-3.6608zm14.4027 2.9692v.5291c0 3.0511-1.6276 5.2897-4.1912 6.2244 2.9718.5304 5.0869 3.0927 5.0869 6.7548v.6097c0 4.9634-3.0927 8.1367-9.1533 8.1367h-10.7822c-.4082 0-.5707-.2028-.5707-.5694v-28.6429c0-.3653.1625-.5681.5707-.5681h10.5768c5.616 0 8.463 2.9289 8.463 7.5257z"/><path d="m221.66261 32.3297v-14.6874c0-.3666.2431-.5694.611-.5694h3.8649c.4069 0 .5694.2028.5694.5694v13.8736c0 2.4011 1.1804 3.8649 3.458 3.8649 2.1151 0 3.9455-1.5873 4.7606-3.8649v-13.8736c0-.3666.1625-.5694.5278-.5694h3.9065c.4069 0 .611.2028.611.5694v21.359c0 .286-.2041.5291-.5694.5291h-3.7856c-.4056 0-.5681-.2431-.5681-.5291v-2.7261c-1.3845 1.9942-3.7024 3.7037-6.7951 3.7037-4.2315 0-6.591-3.0927-6.591-7.6492"/><path d="m250.66379 17.64243v21.3174c0 .3679-.2028.5707-.5681.5707h-3.8649c-.4082 0-.6123-.2028-.6123-.5707v-21.3174c0-.3666.2041-.5694.6123-.5694h3.8649c.3653 0 .5681.2028.5681.5694m0-8.3811v3.8649c0 .4875-.2431.7319-.7306.7319h-3.5399c-.5291 0-.7748-.2444-.7748-.7319v-3.8649c0-.4472.2457-.7332.7748-.7332h3.5399c.4875 0 .7306.286.7306.7332"/><path d="m261.31638 9.05788v29.9026c0 .3666-.2041.5694-.5694.5694h-3.8649c-.4069 0-.611-.2028-.611-.5694v-29.9026c0-.3666.2041-.5694.611-.5694h3.8649c.3653 0 .5694.2028.5694.5694"/><path d="m279.78678 30.66154v-4.5565c0-3.1733-2.0748-5.0037-4.6384-5.0037-2.847 0-4.3524 1.8707-4.3524 5.0037v4.5565c0 3.172 1.5054 4.8815 4.3524 4.8815 2.5636 0 4.6384-1.7095 4.6384-4.8815m-14.0361.7319v-6.0203c0-5.1675 3.0524-8.7074 7.6479-8.7074 3.2955 0 5.4938 1.7095 6.3882 3.2955v-10.9031c0-.2847.1625-.5291.5278-.5291h3.9884c.3263 0 .5291.2444.5291.5291v29.9429c0 .3263-.2028.5291-.5707.5291h-3.783c-.3263 0-.5291-.2028-.5291-.5291v-2.2776c-.936 1.5873-3.1733 3.2552-6.3466 3.2552-4.8399 0-7.852-3.4177-7.852-8.5852"/><path d="m294.27216 25.33206v1.1791h9.0311v-1.1791c0-2.7677-1.5457-4.5981-4.5149-4.5981-2.9705 0-4.5162 1.8304-4.5162 4.5981zm0 4.5162v1.3013c0 2.8886 1.5054 4.6787 4.7203 4.719 3.0082 0 3.9455-1.1804 4.7177-2.6845.3263-.5291.5304-.611 1.0582-.3666l2.5636 1.3026c.5694.2847.611.6097.3666 1.0972-1.3429 2.9705-4.4759 4.7619-8.7477 4.7619-6.2244 0-9.5212-3.7037-9.5212-8.9115v-5.5328c0-5.0856 3.1746-8.9089 9.4393-8.9089 6.0216 0 9.074 3.8233 9.074 8.8283v3.4177c0 .65-.2444.9763-1.0192.9763z"/></g><path d="m12.82723 1.03623v3.5412c0 .4459-.1625.6084-.65.6084h-.5694c-3.2552 0-5.2494 1.6692-6.0632 4.1912v13.2626c0 .3666-.2431.5291-.4875.5291h-4.0287c-.2444 0-.5278-.1625-.5278-.5291v-21.3993c0-.3666.2431-.5291.5681-.5291h3.7037c.4069 0 .5694.2444.5694.5694l-.0403 3.1733c1.1388-2.0748 3.2552-4.0274 6.7132-4.0274.6903 0 .8125.1222.8125.6097" fill="#1a181b" mask="url(#a)" transform="translate(312 16.36128)"/><path d="m15.43997 26.5499c-.3627-.364-.3627-.9594 0-1.3247l9.2482-9.2469c.364-.364.9607-.364 1.3234 0l4.6514 4.6514c.3627.3653.9594.3653 1.3234 0l5.8006-5.8006c.364-.364.364-.9594 0-1.3234l-4.4213-4.4213c-.364-.364-.9594-.9594-1.3234-1.3234l-6.9498-6.9498c-.3627-.364-.9594-.364-1.3234 0l-6.9498 6.9498c-.364.364-.9594.9594-1.3234 1.3234l-6.9498 6.9498-1.3234 1.3247-6.9498 6.9472c-.364.3653-.364.9607 0 1.3247l6.9498 6.9498 1.3234 1.3234 4.4226 4.4226c.3627.3627.9594.3627 1.3221 0l5.8019-5.8006c.3627-.3653.3627-.9607 0-1.3247z" fill="#6d98ba" mask="url(#b)" transform="translate(0 .76128)"/><path d="m41.63926 18.11979c-.364-.364-.9204-.9217-1.2363-1.2363-.3159-.3159-.8736-.2782-1.2363.0858l-7.1812 7.1799c-.3627.364-.9594.364-1.3221 0l-4.6514-4.6514c-.364-.3653-.9607-.3653-1.3234 0l-6.4909 6.4896c-.364.364-.364.9594 0 1.3234l4.6527 4.6514c.3627.3653.3627.9607 0 1.3247l-7.1812 7.1786c-.3627.364-.4017.9204-.0858 1.2376.3146.3159.8723.8723 1.235 1.2363l6.9511 6.9485c.3627.364.9594.364 1.3221 0l6.9498-6.9485 1.3247-1.3247 6.9485-6.9485 1.3247-1.3247 6.9498-6.9498c.3627-.364.3627-.9594 0-1.3234z" fill="#f06543"/></g></svg>