<?xml version="1.0" standalone="no"?>
<!DOCTYPE svg PUBLIC "-//W3C//DTD SVG 20010904//EN"
 "http://www.w3.org/TR/2001/REC-SVG-20010904/DTD/svg10.dtd">
<svg version="1.0" xmlns="http://www.w3.org/2000/svg"
 width="800.000000pt" height="800.000000pt" viewBox="0 0 800.000000 800.000000"
 preserveAspectRatio="xMidYMid meet">
<metadata>
Created by potrace 1.11, written by Peter Selinger 2001-2013
</metadata>
<g transform="translate(0.000000,800.000000) scale(0.100000,-0.100000)"
fill="#000000" stroke="none">
<path d="M3921 7936 c-38 -21 -3810 -3799 -3826 -3833 -16 -33 -17 -100 -3
-109 5 -3 6 -9 3 -14 -3 -5 442 -455 988 -1002 l993 -993 185 0 184 0 431 431
c237 237 436 440 442 451 19 35 23 84 10 121 -9 27 -113 137 -393 418 -209
209 -388 390 -397 401 -27 30 -38 104 -21 143 8 20 317 337 777 796 835 835
786 793 886 770 28 -7 109 -82 427 -399 216 -216 406 -399 424 -409 37 -20 99
-17 136 7 33 22 957 946 979 980 9 14 18 46 20 71 3 38 -1 53 -26 87 -34 49
-2043 2057 -2080 2079 -30 19 -108 20 -139 4z"/>
<path d="M6416 5485 c-20 -7 -44 -19 -53 -26 -9 -8 -276 -273 -592 -590 -317
-316 -589 -584 -604 -594 -16 -10 -41 -20 -55 -21 -73 -8 -83 0 -503 419 -294
293 -411 403 -429 405 -14 1 -34 4 -45 6 -11 2 -33 -2 -49 -7 -37 -13 -1112
-1084 -1126 -1122 -14 -37 -12 -91 4 -123 8 -15 192 -205 409 -422 343 -344
395 -400 401 -432 17 -92 42 -62 -602 -707 -327 -328 -603 -609 -614 -626 -20
-33 -23 -80 -9 -118 5 -13 313 -328 685 -700 687 -686 689 -688 761 -692 11 0
33 4 49 11 27 11 3768 3740 3822 3810 32 41 39 92 19 140 -11 29 -196 219
-688 710 -725 725 -703 706 -781 679z"/>
</g>
</svg>
