<svg xmlns="http://www.w3.org/2000/svg" viewBox="0 0 285.81 42.29"><defs><style>.cls-1{fill:#fff;}</style></defs><g id="Layer_2" data-name="Layer 2"><g id="DistrictBuilder_Old_Logo" data-name="DistrictBuilder Old Logo"><path class="cls-1" d="M73.9,17.65v6.78C73.9,30,70.56,34,63.77,34h-8c-.36,0-.5-.18-.5-.49V8.72c0-.32.14-.49.5-.49h8C70.56,8.23,73.9,12.2,73.9,17.65ZM59.8,12.41V29.78h3.9c4,0,5.7-2,5.7-5.45V17.86c0-3.44-1.69-5.45-5.7-5.45Z"/><path class="cls-1" d="M82.27,7.81v3.34a.56.56,0,0,1-.63.63H78.58c-.46,0-.67-.21-.67-.63V7.81a.59.59,0,0,1,.67-.64h3.06A.58.58,0,0,1,82.27,7.81Zm0,7.24V33.47a.45.45,0,0,1-.49.49H78.44c-.36,0-.53-.18-.53-.49V15.05c0-.32.17-.49.53-.49h3.34A.44.44,0,0,1,82.27,15.05Z"/><path class="cls-1" d="M101.18,18.74a.47.47,0,0,1-.35.67l-2.57.91c-.38.11-.56,0-.67-.35a3.53,3.53,0,0,0-3.72-2.36c-2,0-3.13.81-3.13,2.08s.81,1.69,4.53,2.74c4.4,1.23,6.16,2.95,6.16,6,0,3.59-3,5.94-7.49,5.94-4.08,0-7-1.69-8-4.57-.14-.38,0-.6.43-.77l2.28-1.13c.42-.14.63-.07.77.43.53,1.61,2.18,2.6,4.33,2.6s3.44-.85,3.44-2.22-1-1.93-4.71-2.95c-4.22-1.2-6-2.85-6-5.8,0-3.48,2.84-5.8,7.17-5.8C97.52,14.17,100.27,15.86,101.18,18.74Z"/><path class="cls-1" d="M110.71,10.27V14.7h3.86c.29,0,.46.17.46.52v2.53c0,.36-.17.5-.46.5h-3.86V28c0,1.41.77,2.11,2.35,2.11h1.48a.43.43,0,0,1,.49.49v2.85a.43.43,0,0,1-.49.49h-2.18c-3.94,0-5.91-2.11-5.91-5.34V18.25H104c-.32,0-.49-.14-.49-.5V15.22c0-.35.17-.52.49-.52h2.46V10.27a.46.46,0,0,1,.49-.49h3.24A.44.44,0,0,1,110.71,10.27Z"/><path class="cls-1" d="M129.38,14.84V17.9c0,.38-.15.52-.57.52h-.49A5.07,5.07,0,0,0,123.08,22V33.5a.42.42,0,0,1-.42.46h-3.48a.44.44,0,0,1-.46-.46V15a.44.44,0,0,1,.5-.45h3.19a.45.45,0,0,1,.5.49l0,2.74a6.39,6.39,0,0,1,5.8-3.48C129.27,14.31,129.38,14.42,129.38,14.84Z"/><path class="cls-1" d="M137.28,7.81v3.34a.56.56,0,0,1-.63.63h-3.06c-.45,0-.66-.21-.66-.63V7.81a.59.59,0,0,1,.66-.64h3.06A.58.58,0,0,1,137.28,7.81Zm0,7.24V33.47a.44.44,0,0,1-.49.49h-3.34a.45.45,0,0,1-.52-.49V15.05c0-.32.17-.49.52-.49h3.34A.44.44,0,0,1,137.28,15.05Z"/><path class="cls-1" d="M156.76,19.72a.51.51,0,0,1-.42.64l-2.67.73c-.53.14-.64.07-.78-.31-.38-1.16-.95-2.78-3.48-2.78s-3.65,1.58-3.65,4.18v4.26c0,2.6,1.26,4.07,3.65,4.07A3.3,3.3,0,0,0,153,27.88c.14-.46.32-.53.74-.35l2.7.95c.43.14.43.38.36.73-.6,2.75-3.2,5.14-7.67,5.14-4.88,0-7.73-3.2-7.73-7.7V22c0-4.5,2.85-7.8,7.73-7.8C153.32,14.17,156.16,16.24,156.76,19.72Z"/><path class="cls-1" d="M165.52,10.27V14.7h3.86c.28,0,.46.17.46.52v2.53c0,.36-.18.5-.46.5h-3.86V28c0,1.41.77,2.11,2.35,2.11h1.48a.43.43,0,0,1,.49.49v2.85a.43.43,0,0,1-.49.49h-2.18c-3.94,0-5.91-2.11-5.91-5.34V18.25h-2.43c-.31,0-.49-.14-.49-.5V15.22a.45.45,0,0,1,.49-.52h2.47V10.27a.46.46,0,0,1,.49-.49H165A.45.45,0,0,1,165.52,10.27Z"/><path class="cls-1" d="M191.39,14.73v.46a5.44,5.44,0,0,1-3.62,5.38c2.57.45,4.4,2.67,4.4,5.83v.53c0,4.29-2.68,7-7.91,7h-9.32a.43.43,0,0,1-.49-.49V8.72a.43.43,0,0,1,.49-.49h9.14C188.93,8.23,191.39,10.76,191.39,14.73ZM179,12.17v6.64h4.46c2.64,0,3.59-1.51,3.59-3.16v-.32c0-1.79-.95-3.16-3.59-3.16Zm0,10.61V30h4.71c2.35,0,4-1,4-3.34v-.49c0-2.25-1.45-3.41-4-3.41Z"/><path class="cls-1" d="M195.68,27.74V15.05a.47.47,0,0,1,.53-.49h3.34a.43.43,0,0,1,.49.49V27c0,2.07,1,3.33,3,3.33A4.58,4.58,0,0,0,207.14,27v-12c0-.32.14-.49.46-.49H211c.36,0,.53.17.53.49V33.5A.45.45,0,0,1,211,34h-3.27a.43.43,0,0,1-.49-.46V31.15a7.13,7.13,0,0,1-5.87,3.2C197.72,34.35,195.68,31.68,195.68,27.74Z"/><path class="cls-1" d="M221.09,7.81v3.34a.56.56,0,0,1-.63.63H217.4c-.46,0-.67-.21-.67-.63V7.81a.59.59,0,0,1,.67-.64h3.06A.58.58,0,0,1,221.09,7.81Zm0,7.24V33.47a.44.44,0,0,1-.49.49h-3.34c-.35,0-.53-.18-.53-.49V15.05c0-.32.18-.49.53-.49h3.34A.44.44,0,0,1,221.09,15.05Z"/><path class="cls-1" d="M230.65,7.63V33.47a.44.44,0,0,1-.49.49h-3.34c-.35,0-.53-.18-.53-.49V7.63c0-.32.18-.49.53-.49h3.34A.44.44,0,0,1,230.65,7.63Z"/><path class="cls-1" d="M234.77,26.93v-5.2c0-4.47,2.63-7.53,6.61-7.53a6.21,6.21,0,0,1,5.51,2.85V7.63a.42.42,0,0,1,.46-.46h3.45a.44.44,0,0,1,.45.46V33.5a.43.43,0,0,1-.49.46h-3.27a.43.43,0,0,1-.46-.46v-2a6.29,6.29,0,0,1-5.48,2.82C237.37,34.35,234.77,31.39,234.77,26.93Zm12.12-.63V22.36a4,4,0,0,0-4-4.32c-2.46,0-3.76,1.61-3.76,4.32V26.3c0,2.74,1.3,4.21,3.76,4.21A3.87,3.87,0,0,0,246.89,26.3Z"/><path class="cls-1" d="M259.41,25.59v1.13c0,2.49,1.3,4,4.08,4.08,2.6,0,3.41-1,4.08-2.32.28-.46.45-.53.91-.32l2.22,1.13c.49.24.52.52.31.94-1.16,2.57-3.87,4.12-7.56,4.12-5.38,0-8.22-3.2-8.22-7.7V21.87c0-4.4,2.74-7.7,8.15-7.7,5.2,0,7.84,3.3,7.84,7.63v2.95c0,.56-.21.84-.88.84Zm0-3.9v1h7.8v-1c0-2.39-1.33-4-3.9-4S259.41,19.3,259.41,21.69Z"/><path class="cls-1" d="M285.81,14.84V17.9c0,.38-.14.52-.56.52h-.49A5.07,5.07,0,0,0,279.52,22V33.5a.42.42,0,0,1-.42.46h-3.48a.44.44,0,0,1-.46-.46V15a.43.43,0,0,1,.49-.45h3.2a.44.44,0,0,1,.49.49l0,2.74a6.38,6.38,0,0,1,5.8-3.48C285.71,14.31,285.81,14.42,285.81,14.84Z"/><path class="cls-1" d="M13.32,22.45a.72.72,0,0,1,0-1l8.11-8.11a.72.72,0,0,1,1,0l4.14,4.14a.72.72,0,0,0,1,0l5.14-5.14a.72.72,0,0,0,0-1L28.8,7.36l-1-1L21.66.21a.72.72,0,0,0-1,0L14.51,6.34l-1,1L7.36,13.49l-1,1L.21,20.64a.71.71,0,0,0,0,1l6.13,6.14,1,1,3.94,3.95a.72.72,0,0,0,1,0l5.14-5.14a.72.72,0,0,0,0-1Z"/><path class="cls-1" d="M36,14.51l-1-1a.72.72,0,0,0-1,0l-6.33,6.33a.72.72,0,0,1-1,0L22.45,15.7a.72.72,0,0,0-1,0L15.7,21.43a.72.72,0,0,0,0,1l4.14,4.14a.72.72,0,0,1,0,1l-6.33,6.33a.72.72,0,0,0,0,1l1,1,6.13,6.13a.72.72,0,0,0,1,0L27.79,36l1-1,6.13-6.13,1-1,6.13-6.14a.71.71,0,0,0,0-1Z"/></g></g></svg>