<svg xmlns="http://www.w3.org/2000/svg" viewBox="0 0 49.72 49.72"><defs><style>.cls-1{fill:#6d98ba;}.cls-2{fill:#f06543;}</style></defs><g id="Layer_2" data-name="Layer 2"><g id="DistrictBuilder_Old_Logo" data-name="DistrictBuilder Old Logo"><path class="cls-1" d="M15.58,26.3a.72.72,0,0,1,0-1l9.7-9.7a.72.72,0,0,1,1,0l5,5a.72.72,0,0,0,1,0l6.2-6.2a.72.72,0,0,0,0-1L33.75,8.6l-1-1L25.37.21a.72.72,0,0,0-1,0L17,7.58l-1,1L8.6,16l-1,1L.21,24.35a.72.72,0,0,0,0,1l7.37,7.37,1,1,4.8,4.81a.72.72,0,0,0,1,0l6.2-6.2a.72.72,0,0,0,0-1Z"/><path class="cls-2" d="M42.14,17l-1-1L41,15.82a.72.72,0,0,0-1,0l-7.6,7.6a.72.72,0,0,1-1,0l-5-5a.72.72,0,0,0-1,0l-6.9,6.9a.72.72,0,0,0,0,1l5,5a.72.72,0,0,1,0,1L15.82,40a.72.72,0,0,0,0,1l.14.14,1,1,7.37,7.37a.72.72,0,0,0,1,0l7.37-7.37,1-1,7.37-7.37,1-1,7.37-7.37a.72.72,0,0,0,0-1Z"/></g></g></svg>