<svg xmlns="http://www.w3.org/2000/svg" viewBox="0 0 42.29 42.29"><defs><style>.cls-1{fill:#fff;}</style></defs><g id="Layer_2" data-name="Layer 2"><g id="DistrictBuilder_Old_Logo" data-name="DistrictBuilder Old Logo"><path class="cls-1" d="M13.32,22.45a.72.72,0,0,1,0-1l8.11-8.11a.72.72,0,0,1,1,0l4.14,4.14a.72.72,0,0,0,1,0l5.14-5.14a.72.72,0,0,0,0-1L28.8,7.36l-1-1L21.66.21a.72.72,0,0,0-1,0L14.51,6.34l-1,1L7.36,13.49l-1,1L.21,20.64a.71.71,0,0,0,0,1l6.13,6.14,1,1,3.94,3.95a.72.72,0,0,0,1,0l5.14-5.14a.72.72,0,0,0,0-1Z"/><path class="cls-1" d="M36,14.51l-1-1a.72.72,0,0,0-1,0l-6.33,6.33a.72.72,0,0,1-1,0L22.45,15.7a.72.72,0,0,0-1,0L15.7,21.43a.72.72,0,0,0,0,1l4.14,4.14a.72.72,0,0,1,0,1l-6.33,6.33a.72.72,0,0,0,0,1l1,1,6.13,6.13a.72.72,0,0,0,1,0L27.79,36l1-1,6.13-6.13,1-1,6.13-6.14a.71.71,0,0,0,0-1Z"/></g></g></svg>